<svg id="Capa_1" enable-background="new 0 0 514.589 514.589" height="512" viewBox="0 0 514.589 514.589" width="512" xmlns="http://www.w3.org/2000/svg"><path d="m509.759 468.092-41.357-41.357c25.091-1.476 45.053-22.348 45.053-47.802v-261.506c0-26.408-21.485-47.894-47.894-47.894h-354.361l-65.139-65.139c-5.857-5.858-15.355-5.858-21.213 0s-5.858 15.355 0 21.213l43.927 43.927h-20.445c-26.409 0-47.894 21.485-47.894 47.894v261.506c0 26.408 21.485 47.894 47.894 47.894h72.168v60.64c0 10.735 6.067 20.174 15.833 24.631 3.664 1.673 7.516 2.492 11.328 2.492 6.349 0 12.586-2.274 17.653-6.669l93.505-81.094h167.25l62.479 62.479c2.929 2.929 6.768 4.394 10.606 4.394s7.678-1.465 10.606-4.394c5.859-5.859 5.859-15.358.001-21.215zm-266.367-67.598-92.894 80.563v-69.231c0-8.284-6.716-15-15-15h-87.168c-9.867 0-17.894-8.027-17.894-17.894v-261.505c0-9.866 8.027-17.894 17.894-17.894h50.445l297.293 297.293h-142.849c-3.611 0-7.1 1.303-9.827 3.668zm240.063-283.067v261.506c0 9.866-8.027 17.894-17.894 17.894h-27.068l-297.293-297.294h324.361c9.867 0 17.894 8.028 17.894 17.894z"/></svg>